<?xml version="1.0" encoding="iso-8859-1"?>
<!-- Generator: Adobe Illustrator 19.0.0, SVG Export Plug-In . SVG Version: 6.00 Build 0)  -->
<svg version="1.1" id="Capa_1" xmlns="http://www.w3.org/2000/svg" xmlns:xlink="http://www.w3.org/1999/xlink" x="0px" y="0px"
	 viewBox="0 0 480.006 480.006" style="enable-background:new 0 0 480.006 480.006;" xml:space="preserve">
<g>
	<g>
		<path d="M283.774,336.931l-136-72c-2.344-1.232-5.144-1.232-7.488,0l-36.28,19.2V135.827c8.466-6.368,14.075-15.822,15.608-26.304
			c5.309,1.644,10.835,2.48,16.392,2.48c30.928,0,56-25.072,56-56c0-30.928-25.072-56-56-56c-30.928,0-56,25.072-56,56
			c0,2.677,0.19,5.35,0.568,8h-0.568c-22.08,0.026-39.974,17.92-40,40c0.028,2.691,0.337,5.372,0.92,8h-0.92c-4.418,0-8,3.582-8,8
			v202.24L4.262,336.931c-3.906,2.065-5.398,6.906-3.332,10.812c1.387,2.622,4.11,4.262,7.076,4.26h16v120c0,4.418,3.582,8,8,8h224
			c4.418,0,8-3.582,8-8v-120h16c3.677,0.002,6.882-2.503,7.768-6.072C288.664,342.369,287.015,338.658,283.774,336.931z
			 M80.073,80.07c2.958,0.008,5.889,0.563,8.645,1.637c4.118,1.601,8.754-0.439,10.355-4.557c0.745-1.916,0.724-4.046-0.06-5.947
			c-8.536-20.529,1.186-44.091,21.714-52.627c20.529-8.536,44.091,1.185,52.627,21.714c8.536,20.529-1.185,44.091-21.714,52.627
			c-11.844,4.925-25.325,3.911-36.299-2.73c-3.778-2.291-8.698-1.085-10.989,2.693c-1.073,1.77-1.419,3.888-0.963,5.907
			c1.25,5.208,0.583,10.692-1.88,15.448c-1.48-1.423-3.451-2.222-5.504-2.232H57.662c-1.03-2.545-1.591-5.255-1.656-8
			C56.043,90.748,66.818,80.033,80.073,80.07z M48.006,128.003h40v164.592l-40,21.176V128.003z M200.006,464.003h-112v-64h112
			V464.003z M248.006,344.003v120h-32v-72c0-4.418-3.582-8-8-8h-128c-4.418,0-8,3.582-8,8v72h-32v-120
			c0.001-2.448-1.119-4.762-3.04-6.28l107.04-56.664l107.04,56.664C249.125,339.241,248.005,341.555,248.006,344.003z"/>
	</g>
</g>
<g>
	<g>
		<path d="M480.006,128.003v-32c0.014-1.238-0.26-2.462-0.8-3.576l-24-48c-1.362-2.725-4.153-4.441-7.2-4.424h-35.512l-4.56-33.096
			c-0.547-3.958-3.932-6.906-7.928-6.904h-48c-3.996-0.002-7.381,2.946-7.928,6.904l-4.56,33.096h-35.512
			c-3.047-0.017-5.838,1.699-7.2,4.424l-24,48c-0.54,1.114-0.814,2.338-0.8,3.576v32h16v-24h42.68l-50.608,366.904
			c-0.605,4.377,2.452,8.415,6.829,9.021c0.364,0.05,0.732,0.076,1.099,0.075h176c4.418,0.002,8.002-3.578,8.003-7.997
			c0-0.368-0.025-0.735-0.075-1.099l-50.608-366.904h42.68v24H480.006z M395.206,31.595l1.136,8.408h-6.208L395.206,31.595z
			 M375.886,184.003l-32.992,0.496l33.112-43.328l33.112,43.336L375.886,184.003z M376.006,208.083l51.032,88.96l-51.2-1.04
			l-50.864,1.04L376.006,208.083z M338.598,163.771l3.808-27.768h17.392L338.598,163.771z M392.19,136.003h17.416l3.808,27.768
			L392.19,136.003z M344.638,120.003l2.208-16h58.32l2.208,16H344.638z M353.086,88.003l23.456-28.152l28.152,28.152H353.086z
			 M385.878,16.003l-9.872,16.456l-9.872-16.456H385.878z M356.806,31.595l5.072,8.408h-6.208L356.806,31.595z M292.95,88.003
			l12.024-24.088l16.088,24.088H292.95z M318.958,56.003h40l-22.24,26.648L318.958,56.003z M333.51,200.643l28.568-0.432
			l-37.528,65.392L333.51,200.643z M317.99,313.187l44.656-0.912l-60.448,115.4L317.99,313.187z M301.23,464.003l74.776-142.76
			l74.776,142.76H301.23z M449.814,427.675l-60.44-115.392l44.648,0.912L449.814,427.675z M427.462,265.627l-37.52-65.416
			l28.56,0.432L427.462,265.627z M421.814,82.499l-26.496-26.496h39.744L421.814,82.499z M436.974,88.003l11.032-22.112
			l11.056,22.112H436.974z"/>
	</g>
</g>
<g>
	<g>
		<path d="M192.006,200.003c-4.418,0-8,3.582-8,8v64h16v-56h96v-16H192.006z"/>
	</g>
</g>
<g>
	<g>
		<rect x="104.006" y="352.003" width="80" height="16"/>
	</g>
</g>
<g>
</g>
<g>
</g>
<g>
</g>
<g>
</g>
<g>
</g>
<g>
</g>
<g>
</g>
<g>
</g>
<g>
</g>
<g>
</g>
<g>
</g>
<g>
</g>
<g>
</g>
<g>
</g>
<g>
</g>
</svg>
