<?xml version="1.0" encoding="iso-8859-1"?>
<!-- Generator: Adobe Illustrator 19.0.0, SVG Export Plug-In . SVG Version: 6.00 Build 0)  -->
<svg version="1.1" id="Capa_1" xmlns="http://www.w3.org/2000/svg" xmlns:xlink="http://www.w3.org/1999/xlink" x="0px" y="0px"
	 viewBox="0 0 480 480" style="enable-background:new 0 0 480 480;" xml:space="preserve">
<g>
	<g>
		<path d="M480,360V136c-0.026-22.08-17.92-39.974-40-40h-88V0h-16v184c0,4.418,3.582,8,8,8h27.12L240,270.672L108.88,192H136
			c4.418,0,8-3.582,8-8V0h-16v96H40c-22.08,0.026-39.974,17.92-40,40v224c0.026,22.08,17.92,39.974,40,40h131.056l-16,32H8
			c-4.418,0-8,3.582-8,8c0,40,42.152,40,56,40h368c13.848,0,56,0,56-40c0-4.418-3.582-8-8-8H324.944l-16-32H440
			C462.08,399.974,479.974,382.08,480,360z M128,176H80c-4.418,0.001-7.999,3.584-7.997,8.003c0.001,2.807,1.472,5.407,3.878,6.854
			l160,96c2.534,1.52,5.699,1.52,8.232,0l160-96c3.786-2.277,5.01-7.192,2.734-10.979c-1.445-2.403-4.042-3.874-6.846-3.878h-48v-32
			h80v192H48V144h80V176z M463.032,448c-2.792,9.848-12.448,16-39.032,16H56c-26.584,0-36.24-6.152-39.032-16H463.032z M172.944,432
			l16-32h102.112l16,32H172.944z M40,384c-13.255,0-24-10.745-24-24V136c0-13.255,10.745-24,24-24h88v16H40c-4.418,0-8,3.582-8,8
			v208c0,4.418,3.582,8,8,8h400c4.418,0,8-3.582,8-8V136c0-4.418-3.582-8-8-8h-88v-16h88c13.255,0,24,10.745,24,24v224
			c0,13.255-10.745,24-24,24H40z"/>
	</g>
</g>
<g>
	<g>
		<path d="M312,72H168c-4.418,0-8,3.582-8,8v96c0,4.418,3.582,8,8,8h144c4.418,0,8-3.582,8-8V80C320,75.582,316.418,72,312,72z
			 M285.6,88L240,118.4L194.4,88H285.6z M304,168H176V94.944l59.56,39.712c2.686,1.79,6.186,1.79,8.872,0L304,94.944V168z"/>
	</g>
</g>
<g>
	<g>
		<rect x="160" width="16" height="32"/>
	</g>
</g>
<g>
	<g>
		<rect x="192" y="16" width="16" height="32"/>
	</g>
</g>
<g>
	<g>
		<rect x="232" y="32" width="16" height="16"/>
	</g>
</g>
<g>
	<g>
		<rect x="304" width="16" height="32"/>
	</g>
</g>
<g>
	<g>
		<rect x="272" y="16" width="16" height="32"/>
	</g>
</g>
<g>
</g>
<g>
</g>
<g>
</g>
<g>
</g>
<g>
</g>
<g>
</g>
<g>
</g>
<g>
</g>
<g>
</g>
<g>
</g>
<g>
</g>
<g>
</g>
<g>
</g>
<g>
</g>
<g>
</g>
</svg>
