<?xml version="1.0" encoding="iso-8859-1"?>
<!-- Generator: Adobe Illustrator 19.0.0, SVG Export Plug-In . SVG Version: 6.00 Build 0)  -->
<svg version="1.1" id="Capa_1" xmlns="http://www.w3.org/2000/svg" xmlns:xlink="http://www.w3.org/1999/xlink" x="0px" y="0px"
	 viewBox="0 0 480.056 480.056" style="enable-background:new 0 0 480.056 480.056;" xml:space="preserve">
<g>
	<g>
		<path d="M56.028,208c-13.255,0-24,10.745-24,24s10.745,24,24,24s24-10.745,24-24S69.283,208,56.028,208z M56.028,240
			c-4.418,0-8-3.582-8-8s3.582-8,8-8s8,3.582,8,8S60.446,240,56.028,240z"/>
	</g>
</g>
<g>
	<g>
		<path d="M479.357,424.049c-3.405-20.143-19.186-35.924-39.329-39.329V328c0-4.418-3.582-8-8-8h-120v-24h80c4.418,0,8-3.582,8-8
			v-72h24c4.418,0,8-3.582,8-8v-76.688l10.344,10.344c1.5,1.5,3.534,2.344,5.656,2.344h32v-16H451.34l-16.752-16.752L452.028,88h28
			V72h-32c-2.518,0-4.889,1.186-6.4,3.2l-24,32c-1.039,1.385-1.6,3.069-1.6,4.8v88h-16v-56c0-4.418-3.582-8-8-8h-80V88h80
			c4.418,0,8-3.582,8-8V8c0-4.418-3.582-8-8-8h-208c-4.418,0-8,3.582-8,8v72c0,4.418,3.582,8,8,8h80v48h-80c-4.418,0-8,3.582-8,8v72
			h-32v-24c0-4.418-3.582-8-8-8h-128c-4.418,0-8,3.582-8,8v80c0,4.418,3.582,8,8,8h128c4.418,0,8-3.582,8-8v-16h32v32
			c0,4.418,3.582,8,8,8h80v25.064L46.892,352.08c-3.94,0.565-6.865,3.94-6.864,7.92v24.72C13.889,389.138-3.719,413.91,0.7,440.049
			c4.418,26.139,29.19,43.747,55.329,39.329c26.139-4.418,43.747-29.19,39.329-55.329c-3.405-20.143-19.186-35.924-39.329-39.329
			v-17.784L272.588,336h7.44v48.72c-26.139,4.418-43.747,29.19-39.329,55.329c4.418,26.139,29.19,43.747,55.329,39.329
			c26.139-4.418,43.747-29.19,39.329-55.329c-3.405-20.143-19.186-35.924-39.329-39.329V336h128v48.72
			c-26.139,4.418-43.747,29.19-39.329,55.329c4.418,26.139,29.19,43.747,55.329,39.329
			C466.167,474.959,483.775,450.188,479.357,424.049z M128.028,264h-112v-64h112V264z M176.028,240h-32v-8h32V240z M80.028,432
			c0,17.673-14.327,32-32,32s-32-14.327-32-32c0-17.673,14.327-32,32-32S80.028,414.327,80.028,432z M336.028,16h48v56h-48V16z
			 M240.028,72h-48V16h48V72z M256.028,72V16h64v56H256.028z M296.028,88v48h-16V88H296.028z M192.028,280V152h192v128H192.028z
			 M320.028,432c0,17.673-14.327,32-32,32c-17.673,0-32-14.327-32-32c0-17.673,14.327-32,32-32
			C305.701,400,320.028,414.327,320.028,432z M296.028,320h-16v-24h16V320z M432.028,464c-17.673,0-32-14.327-32-32
			c0-17.673,14.327-32,32-32c17.673,0,32,14.327,32,32C464.028,449.673,449.701,464,432.028,464z"/>
	</g>
</g>
<g>
	<g>
		<rect x="40.028" y="424" width="16" height="16"/>
	</g>
</g>
<g>
	<g>
		<rect x="280.028" y="424" width="16" height="16"/>
	</g>
</g>
<g>
	<g>
		<rect x="424.028" y="424" width="16" height="16"/>
	</g>
</g>
<g>
	<g>
		<rect x="280.028" y="32" width="16" height="16"/>
	</g>
</g>
<g>
	<g>
		<rect x="352.028" y="32" width="16" height="16"/>
	</g>
</g>
<g>
	<g>
		<rect x="208.028" y="32" width="16" height="16"/>
	</g>
</g>
<g>
	<g>
		<rect x="208.028" y="168" width="16" height="16"/>
	</g>
</g>
<g>
	<g>
		<rect x="240.028" y="168" width="16" height="16"/>
	</g>
</g>
<g>
	<g>
		<rect x="272.028" y="168" width="16" height="16"/>
	</g>
</g>
<g>
	<g>
		<path d="M360.028,200h-144c-4.418,0-8,3.582-8,8v48c0,4.418,3.582,8,8,8h144c4.418,0,8-3.582,8-8v-48
			C368.028,203.582,364.446,200,360.028,200z M352.028,248h-128v-32h128V248z"/>
	</g>
</g>
<g>
</g>
<g>
</g>
<g>
</g>
<g>
</g>
<g>
</g>
<g>
</g>
<g>
</g>
<g>
</g>
<g>
</g>
<g>
</g>
<g>
</g>
<g>
</g>
<g>
</g>
<g>
</g>
<g>
</g>
</svg>
