<?xml version="1.0" encoding="iso-8859-1"?>
<!-- Generator: Adobe Illustrator 19.0.0, SVG Export Plug-In . SVG Version: 6.00 Build 0)  -->
<svg version="1.1" id="Capa_1" xmlns="http://www.w3.org/2000/svg" xmlns:xlink="http://www.w3.org/1999/xlink" x="0px" y="0px"
	 viewBox="0 0 479.997 479.997" style="enable-background:new 0 0 479.997 479.997;" xml:space="preserve">
<g>
	<g>
		<path d="M330.342,229.654c3.124,3.123,8.188,3.123,11.312,0l136-136c3.123-3.124,3.123-8.188,0-11.312l-80-80
			c-3.124-3.123-8.188-3.123-11.312,0l-136,136c-3.123,3.124-3.123,8.188,0,11.312l34.344,34.344l-12.688,12.688l-81.376-81.376
			c-12.668-12.069-32.58-12.069-45.248,0l-30.064,30.064c-12.492,12.496-12.492,32.752,0,45.248l81.376,81.376l-12.688,12.688
			l-34.344-34.344c-3.124-3.123-8.188-3.123-11.312,0l-136,136c-3.123,3.124-3.123,8.188,0,11.312l80,80
			c3.124,3.123,8.188,3.123,11.312,0l136-136c3.123-3.124,3.123-8.188,0-11.312l-34.344-34.344l12.688-12.688l49.376,49.376
			c12.496,12.492,32.752,12.492,45.248,0l9.376-9.376l11.2,11.2c-18.307,24.281-13.783,58.752,10.168,77.488
			c3.198,2.513,7.772,2.228,10.632-0.664l17.944-17.952l35.112,14.048c4.102,1.642,8.758-0.352,10.4-4.454
			c0.764-1.908,0.764-4.037,0-5.946l-14.064-35.112l17.944-17.92c2.866-2.867,3.134-7.425,0.624-10.608
			c-18.724-23.924-53.155-28.456-77.432-10.192l-11.2-11.2l9.376-9.376c12.492-12.496,12.492-32.752,0-45.248l-49.392-49.376
			l12.688-12.688L330.342,229.654z M87.998,460.686L19.31,391.998l52.688-52.688l68.688,68.688L87.998,460.686z M212.686,335.998
			l-60.688,60.688L83.31,327.998l60.688-60.688L212.686,335.998z M374.23,381.094l6.848-6.848l4.56,11.408L374.23,381.094z
			 M342.054,338.126c15.052-13.093,37.452-13.093,52.504,0v0.016l-56.432,56.416C323.628,377.89,325.386,352.625,342.054,338.126z
			 M126.622,179.31c-6.246-6.248-6.246-16.376,0-22.624l30.064-30.064c6.333-6.038,16.291-6.038,22.624,0l1.376,1.376
			l-52.688,52.688L126.622,179.31z M163.31,215.998l34.344-34.344l-11.312-11.312l-34.344,34.344l-12.688-12.688l52.688-52.688
			l84.688,84.688l-52.688,52.688L163.31,215.998z M287.998,235.31l12.688,12.688l-34.344,34.344l11.312,11.312l34.344-34.344
			l9.376,9.376c6.246,6.248,6.246,16.376,0,22.624l-30.064,30.064c-6.333,6.038-16.291,6.038-22.624,0l-33.376-33.376
			L287.998,235.31z M391.998,19.31l68.688,68.688l-52.688,52.688L339.31,71.998L391.998,19.31z M267.31,143.998l60.688-60.688
			l68.688,68.688l-60.688,60.688L267.31,143.998z"/>
	</g>
</g>
<g>
	<g>
		<rect x="116.69" y="304.002" transform="matrix(0.7071 -0.7071 0.7071 0.7071 -183.1281 181.8947)" width="22.624" height="16"/>
	</g>
</g>
<g>
	<g>
		<rect x="156.691" y="344.002" transform="matrix(0.7071 -0.7071 0.7071 0.7071 -199.6964 221.8952)" width="22.624" height="16"/>
	</g>
</g>
<g>
	<g>
		<rect x="44.69" y="376.01" transform="matrix(0.7071 -0.7071 0.7071 0.7071 -255.1337 152.0735)" width="22.624" height="16"/>
	</g>
</g>
<g>
	<g>
		<rect x="84.691" y="416.01" transform="matrix(0.7071 -0.7071 0.7071 0.7071 -271.7015 192.0734)" width="22.624" height="16"/>
	</g>
</g>
<g>
	<g>
		<rect x="372.69" y="47.994" transform="matrix(0.7071 -0.7071 0.7071 0.7071 72.8782 287.9315)" width="22.624" height="16"/>
	</g>
</g>
<g>
	<g>
		<rect x="412.691" y="87.994" transform="matrix(0.7071 -0.7071 0.7071 0.7071 56.3099 327.9322)" width="22.624" height="16"/>
	</g>
</g>
<g>
	<g>
		<rect x="300.69" y="119.97" transform="matrix(0.7071 -0.7071 0.7071 0.7071 0.8951 258.101)" width="22.624" height="16"/>
	</g>
</g>
<g>
	<g>
		<rect x="340.691" y="159.97" transform="matrix(0.7071 -0.7071 0.7071 0.7071 -15.6732 298.1017)" width="22.624" height="16"/>
	</g>
</g>
<g>
</g>
<g>
</g>
<g>
</g>
<g>
</g>
<g>
</g>
<g>
</g>
<g>
</g>
<g>
</g>
<g>
</g>
<g>
</g>
<g>
</g>
<g>
</g>
<g>
</g>
<g>
</g>
<g>
</g>
</svg>
