<?xml version="1.0" encoding="iso-8859-1"?>
<!-- Generator: Adobe Illustrator 19.0.0, SVG Export Plug-In . SVG Version: 6.00 Build 0)  -->
<svg version="1.1" id="Capa_1" xmlns="http://www.w3.org/2000/svg" xmlns:xlink="http://www.w3.org/1999/xlink" x="0px" y="0px"
	 viewBox="0 0 480.063 480.063" style="enable-background:new 0 0 480.063 480.063;" xml:space="preserve">
<g>
	<g>
		<rect x="368.063" y="0.034" width="16" height="16"/>
	</g>
</g>
<g>
	<g>
		<rect x="448.063" y="376.034" width="16" height="16"/>
	</g>
</g>
<g>
	<g>
		<rect x="432.063" y="392.034" width="16" height="16"/>
	</g>
</g>
<g>
	<g>
		<rect x="464.063" y="392.034" width="16" height="16"/>
	</g>
</g>
<g>
	<g>
		<rect x="448.063" y="408.034" width="16" height="16"/>
	</g>
</g>
<g>
	<g>
		<path d="M472.063,136.034h-42.984c-8.437,0.026-16.854,0.829-25.144,2.4C365.496,30.218,246.609-26.347,138.393,12.092
			S-26.388,169.418,12.051,277.633c19.365,54.518,60.569,98.504,113.708,121.384l-19.352,19.36l11.312,11.312l24.424-24.424
			c6.511,2.182,13.127,4.035,19.824,5.552l-23.56,23.56l11.312,11.312l31.456-31.456c7.847,1.019,15.745,1.594,23.656,1.72
			l-10.4,10.4l11.312,11.312l22.856-22.856c2.08-0.216,4.16-0.44,6.264-0.712l9.888,9.936l-42.344,42.344l11.312,11.312
			l42.344-42.344l2.344,2.344c3.124,3.123,8.188,3.123,11.312,0l18.344-18.344v52.688c0.003,4.418,3.586,7.998,8.005,7.995
			c1.834-0.001,3.611-0.632,5.035-1.787l75.336-61.208c27.769-22.528,33.762-62.522,13.816-92.2l45.048-40.76
			c28.472-25.798,44.727-62.419,44.76-100.84v-39.2C480.063,139.615,476.481,136.034,472.063,136.034z M175.678,18.754
			c10.699-1.821,21.532-2.732,32.385-2.721c39.106-0.044,77.29,11.87,109.432,34.144c-10.127,8.908-23.145,13.832-36.632,13.856
			h-156c-15.464,0-28,12.536-28,28s12.536,28,28,28h104c11.046,0,20,8.954,20,20s-8.954,20-20,20h-164c-17.673,0-32,14.327-32,32
			s14.327,32,32,32h24c4.418,0,8,3.582,8,8s-3.582,8-8,8h-70.08C1.003,135.604,71.248,36.534,175.678,18.754z M138.031,386.754
			c-57.286-22.569-100.348-71.142-115.888-130.72h66.72c13.255,0,24-10.745,24-24s-10.745-24-24-24h-24c-8.837,0-16-7.163-16-16
			s7.163-16,16-16h164c19.882,0,36-16.118,36-36s-16.118-36-36-36h-104c-6.627,0-12-5.373-12-12s5.373-12,12-12h156
			c18.517,0.003,36.317-7.165,49.664-20c26.257,21.767,46.213,50.162,57.8,82.24c-20.921,6.546-39.938,18.077-55.416,33.6
			l-45.04,45.048c-28.788-24.58-71.994-21.423-96.904,7.08l-68.92,78.768c-2.907,3.327-2.567,8.381,0.76,11.288
			c1.456,1.272,3.323,1.974,5.256,1.976h60.688l-18.344,18.344c-3.123,3.124-3.123,8.188,0,11.312l2.344,2.344L138.031,386.754z
			 M276.519,232.234l-66.112,66.144l-5.656,5.656h-59.088l57.312-65.496C221.809,217.009,254.295,214.225,276.519,232.234z
			 M175.559,397.226c-6.964-1.19-13.854-2.771-20.64-4.736l29.144-29.144l12.688,12.688L175.559,397.226z M208.063,400.034
			c-4.12,0-8.2-0.176-12.256-0.432l12.256-12.256l12.208,12.208C216.143,399.834,212.063,400.034,208.063,400.034z M264.063,420.722
			l-76.688-76.688l28.688-28.688l76.688,76.688L264.063,420.722z M385.935,366.066c-0.788,15.039-7.899,29.042-19.576,38.552
			l-62.296,50.616v-51.888l5.488-5.488l68.664-62.128C383.768,344.84,386.457,355.409,385.935,366.066z M464.063,183.234
			c-0.024,33.905-14.368,66.222-39.496,88.984L304.343,380.994l-76.968-76.96l116.856-116.848
			c22.452-22.58,53.005-35.238,84.848-35.152h34.984V183.234z"/>
	</g>
</g>
<g>
	<g>
		<path d="M392.063,184.034c-22.091,0-40,17.909-40,40s17.909,40,40,40c22.091,0,40-17.909,40-40
			C432.036,201.953,414.143,184.06,392.063,184.034z M392.063,248.034c-13.255,0-24-10.745-24-24s10.745-24,24-24s24,10.745,24,24
			S405.317,248.034,392.063,248.034z"/>
	</g>
</g>
<g>
	<g>
		<rect x="332.75" y="264.002" transform="matrix(0.7071 -0.7071 0.7071 0.7071 -91.5608 322.9568)" width="22.624" height="16"/>
	</g>
</g>
<g>
	<g>
		<rect x="300.75" y="296.033" transform="matrix(0.7071 -0.7071 0.7071 0.7071 -123.5829 309.7102)" width="22.624" height="16"/>
	</g>
</g>
<g>
	<g>
		<rect x="67.092" y="444.031" transform="matrix(0.7071 -0.7071 0.7071 0.7071 -295.0127 191.8391)" width="33.944" height="16"/>
	</g>
</g>
<g>
	<g>
		<rect x="108.754" y="456.031" transform="matrix(0.7071 -0.7071 0.7071 0.7071 -292.9537 220.8122)" width="22.624" height="16"/>
	</g>
</g>
<g>
	<g>
		<rect x="164.752" y="448.024" transform="matrix(0.7071 -0.7071 0.7071 0.7071 -270.8901 258.0623)" width="22.624" height="16"/>
	</g>
</g>
<g>
	<g>
		<rect x="448.063" y="32.034" width="16" height="16"/>
	</g>
</g>
<g>
	<g>
		<rect x="432.063" y="48.034" width="16" height="16"/>
	</g>
</g>
<g>
	<g>
		<rect x="464.063" y="48.034" width="16" height="16"/>
	</g>
</g>
<g>
	<g>
		<rect x="448.063" y="64.034" width="16" height="16"/>
	</g>
</g>
<g>
	<g>
		<path d="M336.063,96.034h-32c-13.255,0-24,10.745-24,24s10.745,24,24,24h32c13.255,0,24-10.745,24-24
			S349.317,96.034,336.063,96.034z M336.063,128.034h-32c-4.418,0-8-3.582-8-8s3.582-8,8-8h32c4.418,0,8,3.582,8,8
			S340.481,128.034,336.063,128.034z"/>
	</g>
</g>
<g>
	<g>
		<rect x="0.063" y="352.034" width="16" height="16"/>
	</g>
</g>
<g>
	<g>
		<rect x="72.063" y="128.034" width="16" height="16"/>
	</g>
</g>
<g>
	<g>
		<rect x="144.063" y="208.034" width="16" height="16"/>
	</g>
</g>
<g>
</g>
<g>
</g>
<g>
</g>
<g>
</g>
<g>
</g>
<g>
</g>
<g>
</g>
<g>
</g>
<g>
</g>
<g>
</g>
<g>
</g>
<g>
</g>
<g>
</g>
<g>
</g>
<g>
</g>
</svg>
