<svg xmlns="http://www.w3.org/2000/svg" height="599pt" version="1.1" viewBox="0 0 599 599.0149" width="599pt">
<g id="surface1">
<path d="M 538.824219 375.347656 L 538.824219 59.867188 C 538.824219 26.804688 512.019531 0 478.957031 0 C 445.890625 0 419.089844 26.804688 419.089844 59.867188 L 419.089844 139.941406 C 331.152344 73.335938 205.871094 90.621094 139.261719 178.558594 C 72.652344 266.492188 89.941406 391.773438 177.878906 458.382812 C 229.8125 497.722656 297.671875 509.261719 359.6875 489.296875 C 359.925781 492.171875 360.238281 495.042969 360.6875 497.925781 C 371.003906 563.246094 432.320312 607.832031 497.640625 597.515625 C 555.945312 588.304688 598.839844 537.976562 598.695312 478.949219 C 598.765625 436.175781 575.921875 396.640625 538.824219 375.347656 Z M 119.746094 299.34375 C 119.582031 200.308594 199.730469 119.894531 298.765625 119.730469 C 343.199219 119.660156 386.074219 136.085938 419.085938 165.828125 L 419.085938 375.367188 C 385.453125 394.855469 363.359375 429.449219 359.828125 468.164062 C 266.984375 501.957031 164.324219 454.085938 130.53125 361.242188 C 123.3125 341.40625 119.660156 320.449219 119.746094 299.34375 Z M 545.460938 553.347656 C 524.230469 572.460938 495.785156 581.476562 467.421875 578.082031 C 412.714844 571.789062 373.464844 522.339844 379.753906 467.632812 C 383.574219 434.402344 403.800781 405.304688 433.617188 390.144531 C 436.945312 388.4375 439.039062 385.011719 439.042969 381.273438 L 439.042969 369.1875 L 459 369.1875 L 459 349.230469 L 439.042969 349.230469 L 439.042969 329.277344 L 459 329.277344 L 459 309.320312 L 439.042969 309.320312 L 439.042969 289.363281 L 459 289.363281 L 459 269.40625 L 439.042969 269.40625 L 439.042969 249.449219 L 459 249.449219 L 459 229.492188 L 439.042969 229.492188 L 439.042969 209.535156 L 459 209.535156 L 459 189.582031 L 439.042969 189.582031 L 439.042969 169.625 L 459 169.625 L 459 149.667969 L 439.042969 149.667969 L 439.042969 129.710938 L 459 129.710938 L 459 109.753906 L 439.042969 109.753906 L 439.042969 89.804688 L 459 89.804688 L 459 69.847656 L 439.042969 69.847656 L 439.042969 59.867188 C 439.042969 37.824219 456.914062 19.957031 478.957031 19.957031 C 501 19.957031 518.867188 37.824219 518.867188 59.867188 L 518.867188 69.847656 L 498.910156 69.847656 L 498.910156 89.804688 L 518.867188 89.804688 L 518.867188 109.757812 L 498.910156 109.757812 L 498.910156 129.714844 L 518.867188 129.714844 L 518.867188 149.671875 L 498.910156 149.671875 L 498.910156 169.628906 L 518.867188 169.628906 L 518.867188 189.585938 L 498.910156 189.585938 L 498.910156 209.542969 L 518.867188 209.542969 L 518.867188 229.5 L 498.910156 229.5 L 498.910156 249.453125 L 518.867188 249.453125 L 518.867188 269.410156 L 498.910156 269.410156 L 498.910156 289.367188 L 518.867188 289.367188 L 518.867188 309.324219 L 498.910156 309.324219 L 498.910156 329.28125 L 518.867188 329.28125 L 518.867188 349.238281 L 498.910156 349.238281 L 498.910156 369.195312 L 518.867188 369.195312 L 518.867188 381.277344 C 518.863281 385.023438 520.960938 388.460938 524.296875 390.167969 C 573.355469 415.15625 592.871094 475.1875 567.878906 524.246094 C 562.273438 535.25 554.671875 545.117188 545.460938 553.347656 Z M 545.460938 553.347656 " style=" stroke:none;fill-rule:nonzero;fill:rgb(0%,0%,0%);fill-opacity:1;" />
<path d="M 289.371094 0 L 309.328125 0 L 309.328125 79.824219 L 289.371094 79.824219 Z M 289.371094 0 " style=" stroke:none;fill-rule:nonzero;fill:rgb(0%,0%,0%);fill-opacity:1;" />
<path d="M 289.371094 518.859375 L 309.328125 518.859375 L 309.328125 598.6875 L 289.371094 598.6875 Z M 289.371094 518.859375 " style=" stroke:none;fill-rule:nonzero;fill:rgb(0%,0%,0%);fill-opacity:1;" />
<path d="M 0.0078125 289.363281 L 79.832031 289.363281 L 79.832031 309.320312 L 0.0078125 309.320312 Z M 0.0078125 289.363281 " style=" stroke:none;fill-rule:nonzero;fill:rgb(0%,0%,0%);fill-opacity:1;" />
<path d="M 66.226562 518.359375 L 122.671875 461.914062 L 136.785156 476.027344 L 80.339844 532.472656 Z M 66.226562 518.359375 " style=" stroke:none;fill-rule:nonzero;fill:rgb(0%,0%,0%);fill-opacity:1;" />
<path d="M 62.792969 76.90625 L 76.90625 62.796875 L 133.347656 119.238281 L 119.238281 133.351562 Z M 62.792969 76.90625 " style=" stroke:none;fill-rule:nonzero;fill:rgb(0%,0%,0%);fill-opacity:1;" />
<path d="M 488.933594 419.976562 L 488.933594 199.5625 L 468.976562 199.5625 L 468.976562 419.976562 C 436.375 425.488281 414.414062 456.386719 419.925781 488.988281 C 425.4375 521.589844 456.332031 543.550781 488.933594 538.039062 C 521.535156 532.53125 543.496094 501.632812 537.988281 469.03125 C 533.742188 443.90625 514.058594 424.226562 488.933594 419.976562 Z M 478.957031 518.859375 C 456.914062 518.859375 439.042969 500.992188 439.042969 478.949219 C 439.042969 456.90625 456.914062 439.035156 478.957031 439.035156 C 501 439.035156 518.867188 456.90625 518.867188 478.949219 C 518.867188 500.992188 501 518.859375 478.957031 518.859375 Z M 478.957031 518.859375 " style=" stroke:none;fill-rule:nonzero;fill:rgb(0%,0%,0%);fill-opacity:1;" />
<path d="M 399.132812 289.363281 L 379.175781 289.363281 C 379.175781 333.449219 343.4375 369.191406 299.351562 369.191406 C 255.265625 369.191406 219.523438 333.449219 219.523438 289.363281 L 199.570312 289.363281 C 199.570312 344.472656 244.242188 389.144531 299.351562 389.144531 C 354.457031 389.144531 399.132812 344.472656 399.132812 289.363281 Z M 399.132812 289.363281 " style=" stroke:none;fill-rule:nonzero;fill:rgb(0%,0%,0%);fill-opacity:1;" />
<path d="M 229.503906 249.453125 L 249.460938 249.453125 L 249.460938 269.410156 L 229.503906 269.410156 Z M 229.503906 249.453125 " style=" stroke:none;fill-rule:nonzero;fill:rgb(0%,0%,0%);fill-opacity:1;" />
<path d="M 359.21875 249.453125 L 379.175781 249.453125 L 379.175781 269.410156 L 359.21875 269.410156 Z M 359.21875 249.453125 " style=" stroke:none;fill-rule:nonzero;fill:rgb(0%,0%,0%);fill-opacity:1;" />
</g>
</svg>